<svg width="38" height="38" viewBox="0 0 38 38" fill="none" xmlns="http://www.w3.org/2000/svg">
<path d="M4 12C4 10.8954 4.89543 10 6 10H8C9.10457 10 10 10.8954 10 12V22C10 23.1046 10.8954 24 12 24H26C27.1046 24 28 23.1046 28 22V12C28 10.8954 28.8954 10 30 10H32C33.1046 10 34 10.8954 34 12V25C34 27.7614 31.7614 30 29 30H9C6.23858 30 4 27.7614 4 25V12Z" fill="#FF5524"/>
<path d="M11 11C11 9.34315 12.3431 8 14 8H24C25.6569 8 27 9.34315 27 11V22C27 22.5523 26.5523 23 26 23H12C11.4477 23 11 22.5523 11 22V11Z" fill="#FF5524"/>
</svg>
